# xmcd
#
# Track frame offsets:
#	150
#	16475
#	33376
#	50767
#	74548
#	92056
#	106836
#	120696
#	142704
#	164610
#	181058
#	200542
#	221350
#	246101
#	264676
#
# Disc length: 3870 seconds
#
# Revision: 1
# Processed by: cddbd v1.5.1PL2 Copyright (c) Steve Scherf et al.
# Submitted via: audiograbber 1.83.01
#
DISCID=d50f1c0f
DTITLE=Various Artist - SC8897
DYEAR=1900
DGENRE=
TTITLE0=TWAIN, SHANIA and BILLY CURRINGTON - PARTY FOR TWO 
TTITLE1=ALLAN, GARY - NOTHING ON BUT THE RADIO
TTITLE2=MCENTIRE, REBA - HE GETS THAT FROM ME  
TTITLE3=MCGRAW, TIM - BACK WHEN 
TTITLE4=MCGRAW, TIM - MY OLD FRIEND  
TTITLE5=WILSON, GRETCHEN - WHEN IT RAINS
TTITLE6=JACKSON, ALAN - TO DO WHAT I DO 
TTITLE7=CHESNEY, KENNY - WOMAN WITH YOU, THE  
TTITLE8=MCGRAW, TIM - DRUGS OR JESUS 
TTITLE9=BUFFETT, JIMMY and TOBY KEITH - PIECE OF WORK  
TTITLE10=JUDD, CLEDUS T. and TOBY KEITH - I LOVE NASCAR 
TTITLE11=BIG and RICH - HOLY WATER  
TTITLE12=WILSON, GRETCHEN - POCAHONTAS PROUD  
TTITLE13=DIFFIE, JOE - IF I COULD ONLY BRING YOU BACK  
TTITLE14=RIMES, LEANN - NOTHIN' BOUT LOVE MAKES SENSE 
EXTD=
EXTT0=
EXTT1=
EXTT2=
EXTT3=
EXTT4=
EXTT5=
EXTT6=
EXTT7=
EXTT8=
EXTT9=
EXTT10=
EXTT11=
EXTT12=
EXTT13=
EXTT14=
PLAYORDER=
